<?xml version="1.0" encoding="UTF-8" standalone="no"?>
<!-- Created with Inkscape (http://www.inkscape.org/) -->

<svg
   width="269.12323mm"
   height="251.10609mm"
   viewBox="0 0 269.12324 251.1061"
   version="1.1"
   id="svg1"
   inkscape:version="1.4 (e7c3feb100, 2024-10-09)"
   sodipodi:docname="logo.svg"
   xmlns:inkscape="http://www.inkscape.org/namespaces/inkscape"
   xmlns:sodipodi="http://sodipodi.sourceforge.net/DTD/sodipodi-0.dtd"
   xmlns="http://www.w3.org/2000/svg"
   xmlns:svg="http://www.w3.org/2000/svg">
  <sodipodi:namedview
     id="namedview1"
     pagecolor="#ffffff"
     bordercolor="#000000"
     borderopacity="0.25"
     inkscape:showpageshadow="2"
     inkscape:pageopacity="0.0"
     inkscape:pagecheckerboard="0"
     inkscape:deskcolor="#d1d1d1"
     inkscape:document-units="mm"
     inkscape:zoom="0.47039436"
     inkscape:cx="417.7346"
     inkscape:cy="842.90977"
     inkscape:window-width="1661"
     inkscape:window-height="1326"
     inkscape:window-x="0"
     inkscape:window-y="0"
     inkscape:window-maximized="1"
     inkscape:current-layer="g8"
     showgrid="false" />
  <defs
     id="defs1" />
  <g
     inkscape:label="Layer 1"
     inkscape:groupmode="layer"
     id="layer1"
     transform="translate(-16.668373,220.92488)">
    <g
       id="g8"
       transform="matrix(0.26458333,0,0,0.26458333,-78.762801,-313.49442)">
      <path
         id="path1"
         style="display:inline;fill:#5192b7;fill-opacity:1;stroke:none;stroke-width:0.944882;stroke-linecap:round"
         inkscape:label="color"
         d="m 1092.3418,349.87305 c -2.0306,0.005 -4.0612,0.009 -6.0918,0.0156 -0.1304,0.60159 -0.4709,0.9387 -1.0821,0.97085 -7.2777,1.85289 -13.6916,7.2211 -16.3309,14.31491 -2.7026,6.79951 -2.4635,14.39735 -0.9462,21.44643 1.9573,9.26177 6.2534,17.78051 9.003,26.79967 1.7268,5.39351 3.2782,10.86086 4.2156,16.45252 -20.8769,-6.70305 -42.5495,-10.70219 -64.3358,-12.95666 -22.47076,-2.25985 -45.19423,-2.59616 -67.6582,-0.0841 -6.37802,0.73556 -12.7279,1.7283 -19.01774,3.01731 -18.29889,-11.25074 -37.44674,-21.1059 -57.19856,-29.5445 -25.99241,-11.15287 -52.95079,-20.06884 -80.48681,-26.53372 -19.11276,-4.43828 -38.56497,-7.63506 -58.17973,-8.60328 -12.19038,-0.53322 -24.51641,-0.13432 -36.47386,2.46683 -8.00111,1.81325 -15.92532,4.84406 -22.31237,10.11141 -5.56251,4.64638 -9.70565,11.20297 -10.71516,18.44938 -0.82038,5.28663 -0.60644,10.79347 0.9871,15.91817 1.76006,5.32031 5.49354,9.66945 9.42765,13.5349 5.03746,4.97858 10.50926,9.53022 15.76831,14.21716 5.84789,5.14615 11.52323,10.50762 16.68919,16.34442 4.14546,4.54034 8.13586,9.26527 11.97894,14.13957 1.6673,2.10783 3.40615,4.37877 5.00643,6.54388 9.52508,12.85368 18.09874,26.43041 25.36629,40.6882 3.58349,7.05962 6.89747,14.46617 9.62765,21.97461 0.24599,0.74629 0.61006,1.51097 0.78446,2.24609 -3.99517,5.47491 -7.92468,11.2008 -13.39858,15.32725 -3.67849,2.87414 -8.45273,4.0175 -13.06191,3.82793 -5.02815,-0.0684 -9.97438,-1.11505 -14.85006,-2.26064 -0.93969,-0.24076 -2.14931,-0.53271 -3.19152,-0.80067 -7.39613,-1.92207 -14.82637,-4.09567 -22.32839,-5.80969 -16.17492,-3.86048 -32.64961,-6.99017 -49.32539,-7.25345 -9.57259,-0.0976 -19.34254,0.95578 -28.24206,4.67017 -8.03167,3.38409 -15.1043,9.41911 -18.94928,17.32222 -3.92393,7.86348 -4.9284,16.87143 -4.274,25.55013 0.81533,11.75778 4.17776,23.15846 8.09567,34.21488 4.90022,13.68605 11.24282,26.78597 17.48021,39.89721 0.72994,1.57372 1.4471,3.15375 2.12148,4.75216 -7.9065,0.36226 -15.8259,0.20152 -23.73745,0.37127 -11.98342,0.21708 -24.06337,0.97745 -35.71626,3.95686 -7.56434,2.01373 -15.07111,5.06951 -20.98993,10.32002 -4.79505,4.16352 -8.36697,9.74007 -9.97332,15.89662 -1.87658,6.93544 -1.49303,14.28977 0.0645,21.24684 2.33852,10.63072 7.0158,20.55987 12.04514,30.15 7.31504,13.772 16.13256,26.65484 24.56345,39.7494 0.95514,1.50972 1.90179,3.00124 2.7763,4.47217 0.93256,1.55786 1.83109,3.02431 2.61991,4.69815 -3.43278,1.94359 -7.04332,3.55023 -10.57437,5.30423 -9.42806,4.54385 -18.86344,9.4339 -26.71849,16.45677 -5.84918,5.20817 -10.71097,11.85791 -12.59503,19.55622 -1.66743,6.57927 -1.07956,13.58376 1.07616,19.9791 2.59289,7.86954 7.11345,14.93826 12.0686,21.51638 3.73758,4.88125 7.84053,9.46369 11.85837,14.11113 -5.11832,5.43157 -10.19955,11.22638 -12.83438,18.32316 -1.79183,4.74877 -2.21392,9.98541 -1.2132,14.96106 1.28871,6.64431 4.79111,12.59356 8.61238,18.0821 5.97019,8.45217 13.34084,15.92031 18.3347,25.04965 0.52896,0.92759 1.02126,1.87623 1.48526,2.83794 -9.39315,23.72504 -20.01169,46.98283 -32.19215,69.41143 -4.22394,7.7383 -8.66191,15.4703 -13.343,22.8738 -1.02456,1.6092 -2.05701,3.2134 -3.11524,4.8007 -7.7436,-2.6009 -15.9374,-4.6107 -24.16015,-3.7343 -6.74797,0.769 -13.40409,3.9639 -17.53688,9.4678 -4.37698,5.6562 -6.09842,12.9236 -6.28449,19.9655 -0.14905,5.9547 0.53312,11.8857 0.81149,17.8272 0.0963,1.5542 0.19019,3.1085 0.27745,4.6633 -6.10945,-1.7213 -12.60236,-2.7632 -18.91205,-1.5896 -6.12438,1.2249 -11.80989,4.9411 -14.99947,10.3663 -3.67344,5.9312 -4.81566,13.0041 -5.2107,19.86 -0.30886,5.1666 -0.1517,10.3449 -0.0555,15.5156 -1.63975,1.0576 -3.22108,2.021 -4.94055,3.022 -6.72119,3.8624 -13.65505,7.3447 -20.64642,10.6883 -5.12385,2.4268 -10.39184,4.6611 -15.60052,7.0018 -7.29601,3.4216 -14.41355,7.7494 -19.56958,14.0593 -4.19723,5.237 -6.44082,12.3017 -4.99337,18.9628 1.34986,6.6632 5.7017,12.358 10.95862,16.5014 7.68501,6.2751 16.9048,10.2563 26.1329,13.6792 16.71568,6.0858 34.19514,9.7482 51.71202,12.6385 27.79224,4.4752 55.96233,6.3346 84.09807,6.4532 18.7031,0.034 37.40947,-0.833 56.02266,-2.6647 -2.99606,7.8047 -5.92448,15.6416 -8.48891,23.5995 -1.19489,4.0826 -1.30226,8.3654 -1.91327,12.5521 -0.0807,0.6578 -0.16158,1.3156 -0.24235,1.9734 5.95704,1.377 12.01328,2.7459 18.16913,2.4767 48.21275,0.3725 96.42732,0.2475 144.64102,0.2811 22.62253,0 45.24506,0 67.86758,0 -2.31812,-12.796 -4.1645,-25.7628 -8.4061,-38.1072 -0.90026,-2.6834 -1.90076,-5.3323 -2.94937,-7.9611 3.39143,-3.4058 7.00128,-6.5825 10.50977,-9.8653 14.88953,-1.6852 29.82226,-3.4207 44.718,-4.6251 22.91822,-1.7787 45.97552,-2.8247 68.95882,-4.1862 15.79567,-0.9777 31.56518,-2.433 47.26212,-4.4521 3.39719,-0.4554 6.79036,-0.9317 10.18606,-1.4006 3.14559,5.9458 4.00326,12.7428 4.61649,19.3476 0.65698,8.1353 0.65417,16.2685 1.02371,24.4148 0.11012,3.2784 0.22139,6.5568 0.3305,9.8352 70.13216,0 140.26436,0 210.39646,0 -2.3076,-7.0571 -4.2128,-14.2362 -6.4573,-21.3122 -3.8485,-12.5026 -10.4673,-24.0394 -18.6132,-34.2284 -2.7479,-3.4212 -5.6851,-6.6896 -8.783,-9.7972 15.4785,-20.7807 25.3235,-45.7681 27.8531,-71.5764 2.2416,-22.3655 -0.937,-45.2755 -9.3687,-66.1234 -0.6303,-1.6118 -1.2898,-3.212 -1.9356,-4.8178 5.1158,-17.1375 9.9788,-34.4082 12.7946,-52.0965 0.7908,-4.6701 1.4838,-9.3561 2.1175,-14.05 9.5696,-0.036 19.1612,-0.8889 28.5036,-3.0146 17.7097,-3.9171 34.419,-11.78784 49.2023,-22.23038 7.419,-5.19077 14.3882,-10.99333 21.1418,-17.01678 20.6504,3.54365 41.3008,7.08707 61.9512,10.63086 -1.2049,-6.9683 -1.9873,-13.99845 -3.0159,-20.9925 -1.2569,-9.15778 -4.4515,-17.90769 -8.008,-26.39229 -3.3242,-7.74073 -7.1788,-15.27201 -11.8082,-22.31834 4.793,-1.30229 9.6801,-2.43985 14.4955,-3.35706 3.1542,-0.6024 6.3556,-1.12669 9.4679,-1.54525 3.8518,-0.60042 7.7846,-0.66413 11.5892,-1.55212 2.677,-0.61767 5.2027,-1.99118 6.9805,-4.11302 0.8261,-0.95007 1.7748,-1.7789 2.8146,-2.48723 0.5964,-4.65808 -0.1864,-9.49883 -2.3887,-13.65957 -4.9302,-9.3144 -10.3562,-18.45884 -17.2995,-26.43404 -8.6867,-10.14297 -19.1463,-19.01065 -31.3744,-24.56176 -8.9552,-4.10717 -18.7408,-6.30873 -28.5776,-6.65183 -7.256,-0.29296 -14.5517,0.16456 -21.7038,1.42705 -6.6126,1.28154 -12.9012,3.75685 -19.2087,6.04711 -3.3818,0.98249 -6.9354,1.07665 -10.4252,1.33077 -2.8642,0.14733 -5.8985,0.21803 -8.8893,0.21906 15.9957,-13.12094 30.3388,-28.58271 40.5606,-46.66211 8.1971,-14.56151 13.518,-31.02027 13.621,-47.8285 0.124,-14.01405 -3.3958,-28.04234 -10.1791,-40.31117 -2.8023,-5.19741 -6.2205,-10.02503 -9.7466,-14.749 0.6446,-9.02663 0.8225,-18.10781 -0.013,-27.12854 -1.6873,-20.99108 -6.5915,-41.64023 -13.5312,-61.49301 -3.5824,-10.08995 -7.853,-19.92717 -12.5889,-29.52689 -0.6167,-1.2722 -1.3019,-2.76491 -1.8768,-4.1538 -0.559,-1.35299 -1.0744,-2.72572 -1.4864,-4.13135 -0.1055,-0.3536 -0.3129,-1.11246 -0.4339,-1.62885 -0.8106,-4.02158 -1.2824,-8.03635 -1.9284,-12.09546 -4.8588,-32.68217 -15.3855,-64.56385 -31.337,-93.51984 -14.2529,-25.89009 -32.9267,-49.46226 -55.5837,-68.50312 -9.6312,-8.02768 -19.8346,-15.48123 -31.0071,-21.23123 -6.3263,-3.19422 -12.9425,-5.95564 -19.8978,-7.4258 -3.2909,-0.67795 -6.6515,-1.04208 -10.0133,-0.99609 z" />
      <path
         style="display:inline;fill:#5192b7;fill-opacity:1;stroke:none;stroke-width:0.944882;stroke-linecap:round"
         d="m 1092.4108,361.8764 c 13.009,-0.45902 34.0801,9.75668 57.7558,30.83984 41.5658,37.01429 69.9884,92.31954 78.4629,152.68164 1.941,13.82511 2.1532,14.5009 8.9864,28.64844 15.7239,32.55472 24.6529,72.7229 22.7382,102.27734 l -0.5781,8.92383 5.8828,8.0957 c 30.3046,41.71033 11.6153,95.74328 -47.75,138.04688 -6.14,4.3753 -11.0378,8.08143 -10.8828,8.23633 4.0031,4.0031 44.5789,5.06441 54.1406,1.41601 14.2268,-5.4285 18.0297,-6.30716 29.5274,-6.82226 24.3334,-1.09011 43.3498,8.42541 61.1582,30.60351 4.6645,5.8091 13.8144,21.34779 13.8144,23.45899 0,0.21609 -3.2625,0.70132 -7.25,1.07812 -16.9722,1.6035 -44.75,9.05606 -44.75,12.00586 0,0.3068 2.1884,3.27415 4.8633,6.59375 9.3854,11.6472 19.92,35.3074 21.7032,48.75 l 0.6582,4.97461 -25.6661,-4.4043 -25.664,-4.40234 -8.668,7.59765 c -27.5788,24.1763 -55.0355,35.45899 -86.2949,35.45899 h -10.8086 l -0.5957,4.75001 c -3.017,24.024 -6.1873,39.1966 -13.0332,62.3769 l -3.4356,11.6289 3.502,8.6817 c 17.528,43.4689 9.6869,93.4508 -20.4824,130.5625 -2.9137,3.5841 -2.8048,3.8346 4.9941,11.5254 11.1892,11.0341 20.2404,25.6811 24.2832,39.2949 l 1.5371,5.1797 h -91.3125 -91.31247 l -0.51368,-15.25 c -0.5655,-16.7512 -3.08377,-27.4167 -8.26367,-35 -2.9721,-4.3511 -3.2574,-4.3879 -17.5039,-2.2481 -11.5335,1.7323 -36.73383,4.1328 -51.98633,4.9532 -62.9712,3.3871 -69.81872,3.9043 -105.10352,7.9277 l -10.60547,1.209 -9.67968,8.9531 c -6.0875,5.6313 -9.50881,9.5117 -9.22071,10.4551 0.2521,0.825 1.63803,4.316 3.07813,7.7578 2.5175,6.0164 5.52321,16.6176 6.94531,24.4922 l 0.67774,3.75 H 694.21352 c -55.8499,0 -101.54687,-0.1749 -101.54687,-0.3887 0,-1.4192 8.59129,-24.8718 11.93359,-32.5781 4.8223,-11.1183 5.25674,-10.2427 -4.50976,-9.0645 -137.9223,16.638 -284.30971,-24.4419 -205.03321,-57.5371 12.9551,-5.4083 31.12165,-14.7032 38.65625,-19.7773 l 5.27344,-3.5508 -0.22851,-12.9434 c -0.4712,-26.7997 6.44886,-32.3967 29.85156,-24.1445 11.4324,4.0312 10.69863,6.6737 8.42383,-30.3203 -1.3318,-21.6576 8.97151,-27.9457 32.41601,-19.7852 l 8.2832,2.8829 3.85547,-5.6778 c 15.8455,-23.3335 34.94358,-60.7739 49.20508,-96.46287 l 3.93555,-9.84765 -3.60352,-7.19532 c -1.9822,-3.9571 -6.95473,-11.22544 -11.04883,-16.15234 -19.31759,-23.2473 -20.05334,-30.25576 -4.87304,-46.34766 8.4158,-8.9212 8.45142,-8.63599 -2.70508,-21.21679 -28.7037,-32.36809 -25.76607,-49.31596 11.67773,-67.38086 27.3166,-13.179 27.14986,-10.85188 3.38086,-47.20313 -43.4464,-66.44486 -35.24652,-88.41471 33.10938,-88.69922 40.1582,-0.16715 39.51172,0.72554 23.57422,-32.56054 -42.1182,-87.96538 -17.98192,-111.36148 85.02148,-82.41407 30.4788,8.56555 42.46854,5.32269 57.86524,-15.65429 l 6.75976,-9.21094 -3.34961,-9.13477 c -12.9898,-35.42308 -42.47899,-78.33171 -70.65429,-102.80664 -22.6013,-19.63301 -23.53175,-20.82835 -23.59375,-30.32812 -0.2986,-45.75561 144.69675,-23.92877 244.50195,36.80664 l 7.08203,4.31055 6.14648,-1.2461 c 44.2329,-8.95455 108.76694,-3.34845 152.95504,13.28516 10.437,3.92875 8.7227,-17.59737 -3.9414,-49.50781 -8.5786,-21.61585 -3.632,-32.74802 9.377,-33.20703 z"
         id="path5"
         inkscape:label="color" />
      <path
         id="path6"
         style="display:inline;fill:#000000;fill-opacity:0.258028;stroke:none"
         d="m 987.49868,472.24358 16.68942,16.67383 c 18.8607,18.8417 27.1898,24.7597 42.8711,50.01758 26.5734,42.80194 32.3562,50.74335 45.2403,62.11719 12.2339,10.79995 21.5896,14.3279 29.0351,10.94726 19.1005,-8.67229 28.4342,-42.65602 20.0938,-76.32812 -1.0584,-4.27283 -1.7895,-7.6591 -1.7344,-7.95899 -29.4877,-20.39191 -81.3925,-49.08922 -146.54884,-54.95898 z M 649.97524,578.60882 c 0.3145,27.57064 14.08303,52.22021 22.39453,77.85351 4.7676,15.22489 11.93669,37.41062 -4.16211,48.42383 -25.7246,9.93895 -53.43574,0.0495 -80.02734,2.03516 -7.1785,7.9931 3.44095,24.4948 6.43945,34.96875 5.1931,14.1235 14.04568,26.26816 19.45508,40.15625 2.6209,11.76828 8.70647,26.64118 -0.79883,36.80468 -11.3987,10.85997 -28.13112,11.10819 -41.98632,16.58204 -16.2043,8.90016 5.04152,23.22668 10.54492,31.25976 11.225,10.3968 12.20368,29.83769 -1.07032,39.11719 -13.54489,9.8712 0.74806,20.77109 7.87696,29.36719 0.075,-0.2102 0.10189,-0.27574 0.17969,-0.49414 12.6082,-35.3679 15.57612,-43.62165 20.04492,-55.74805 35.8576,-97.30358 56.02868,-145.98412 88.05078,-212.5 12.2479,-25.4412 21.85891,-43.53364 32.32031,-61.22852 -2.1569,-3.53444 -9.0793,-5.62208 -13.6543,-8.1582 -21.4647,-7.17498 -42.67242,-17.15468 -65.60742,-18.43945 z m 285.68555,1.9375 c -0.1549,10e-4 -0.30919,0.0165 -0.46289,0.043 -1.4756,0.25444 -2.95594,1.64408 -5.64844,3.75781 -4.6249,3.63073 -8.2042,7.72168 -11.2832,11.98437 3.1673,2.12725 9.97513,6.28677 15.11133,9.0918 5.6158,3.06699 10.28459,6.20053 10.80859,6.54297 l 1.53711,1.00586 c 0.036,0.0237 0.088,0.0204 0.125,0.043 2.8647,-3.88241 6.35191,-7.26271 10.91211,-9.28125 3.5962,-1.59185 4.43546,-0.32566 -8.64844,-13.04883 -7.5104,-7.30335 -10.12697,-10.1597 -12.45117,-10.13867 z m -35.17188,261.84961 c -1.3078,-0.014 -2.61763,0.0121 -3.92773,0.0801 -10.0987,0.0302 -19.13013,4.64214 -28.39453,7.99024 29.6242,-1.10592 55.99642,15.29693 80.01172,30.68945 31.2594,20.3315 65.76673,37.18582 103.18363,41.72852 36.3502,4.0488 78.4222,-5.57436 109.4746,-24.88086 4.2945,-8.2046 -2.8063,-21.80852 -3.4532,-30.58789 -11.2876,6.12794 -23.4552,15.11767 -36.0097,18.60547 -32.8001,10.464 -68.1886,5.90693 -100.6504,-3.22657 -5.4302,-1.6555 -10.2063,-2.42421 -14.0918,-4.38281 -4.4857,-0.7457 -9.53398,-3.68557 -15.35548,-4.93359 -21.2302,-8.39645 -42.0495,-18.8624 -63.8457,-26.20313 -8.7082,-2.75886 -17.78641,-4.78081 -26.94141,-4.8789 z"
         inkscape:label="shadow" />
      <path
         style="display:inline;fill:#1e1e1e;fill-opacity:1"
         d="m 592.6674,1286.5455 c 0,-1.4192 8.5898,-24.8709 11.9321,-32.5772 4.8223,-11.1183 5.2574,-10.2437 -4.5091,-9.0655 -137.9223,16.638 -284.3105,-24.4416 -205.034,-57.5368 12.9551,-5.4083 31.1221,-14.7024 38.6567,-19.7765 l 5.2736,-3.5515 -0.2276,-12.9427 c -0.4712,-26.7997 6.4485,-32.3966 29.8512,-24.1444 11.4324,4.0312 10.6983,6.6736 8.4235,-30.3204 -1.3318,-21.6576 8.9721,-27.9468 32.4166,-19.7863 l 8.283,2.8831 3.8554,-5.6773 c 15.8455,-23.3335 34.9436,-60.774 49.2051,-96.46301 l 3.935,-9.8473 -3.604,-7.1948 c -1.9822,-3.9571 -6.9536,-11.2258 -11.0477,-16.1527 -19.3176,-23.2473 -20.0547,-30.2564 -4.8744,-46.3483 8.4158,-8.9212 8.4522,-8.6361 -2.7043,-21.2169 -28.7037,-32.36809 -25.7665,-49.31609 11.6773,-67.38099 27.3166,-13.179 27.1499,-10.8517 3.3809,-47.20295 -43.4464,-66.44486 -35.2452,-88.41455 33.1107,-88.69906 40.1582,-0.16715 39.511,0.72665 23.5735,-32.55943 -42.1182,-87.96538 -17.9812,-111.36226 85.0222,-82.41485 30.4788,8.56555 42.4678,5.32194 57.8645,-15.65504 l 6.76,-9.21012 -3.3499,-9.13513 c -12.9898,-35.42308 -42.4786,-78.33111 -70.6539,-102.80604 -22.6013,-19.63301 -23.5319,-20.82931 -23.5939,-30.32908 -0.2986,-45.75561 144.6964,-23.92796 244.5016,36.80745 l 7.0819,4.30959 6.147,-1.2444 c 44.2329,-8.95455 108.7662,-3.35005 152.9543,13.28356 10.437,3.92875 8.7237,-17.59586 -3.9404,-49.5063 -17.1572,-43.2317 19.7818,-44.53507 67.1332,-2.36875 41.5658,37.01429 69.9867,92.32015 78.4612,152.68225 1.941,13.82511 2.1532,14.50174 8.9864,28.64928 15.7239,32.55472 24.6547,72.72307 22.74,102.27751 l -0.5781,8.92318 5.8818,8.09556 c 30.3046,41.71033 11.6145,95.74267 -47.7508,138.04627 -6.14,4.3753 -11.0369,8.0819 -10.8819,8.2368 4.0031,4.0031 44.5796,5.064 54.1413,1.4156 14.2268,-5.4285 18.0281,-6.3067 29.5258,-6.8218 24.3334,-1.0901 43.3504,8.4262 61.1588,30.6043 4.6645,5.8091 13.8154,21.34729 13.8154,23.45849 0,0.2161 -3.2625,0.7012 -7.25,1.078 -16.9722,1.6035 -44.75,9.0558 -44.75,12.0056 0,0.3068 2.1886,3.2737 4.8635,6.5933 9.3854,11.6472 19.918,35.308 21.7012,48.7506 l 0.6598,4.974 -25.6658,-4.4033 -25.6658,-4.4033 -8.6677,7.5984 c -27.5788,24.1763 -55.0355,35.4581 -86.2949,35.4581 h -10.8078 l -0.5965,4.75001 c -3.017,24.024 -6.1875,39.1979 -13.0334,62.3782 l -3.4341,11.6281 3.5006,8.6814 c 17.528,43.4689 9.687,93.4506 -20.4823,130.5623 -2.9137,3.5841 -2.8045,3.836 4.9944,11.5268 11.1892,11.0341 20.2399,25.6795 24.2827,39.2933 l 1.5383,5.1799 h -91.3122 -91.3123 l -0.5148,-15.25 c -0.5655,-16.7512 -3.0836,-27.4167 -8.2635,-35 -2.9721,-4.3511 -3.2571,-4.3877 -17.5036,-2.2479 -11.5335,1.7323 -36.7333,4.1339 -51.9858,4.9543 -62.9712,3.3871 -69.8203,3.9037 -105.1051,7.9271 l -10.605,1.2092 -9.6787,8.9537 c -6.0875,5.6313 -9.5087,9.5102 -9.2206,10.4536 0.2521,0.825 1.6366,4.316 3.0767,7.7578 2.5175,6.0164 5.524,16.6176 6.9461,24.4922 l 0.6772,3.75 H 694.2127 c -55.8499,0 -101.5453,-0.175 -101.5453,-0.3888 z m 174.0041,-30.2228 c -5.679,-13.6454 -5.5948,-13.9766 6.1987,-24.3521 36.6772,-32.2675 46.8873,-67.329 32.1159,-110.2863 -3.3248,-9.669 -4.178,-9.8073 -3.0851,-0.5 4.4891,38.2302 -9.6393,75.4773 -40.0401,105.559 -17.0573,16.8783 -16.8557,14.1391 -2.1727,29.5178 12.1422,12.7176 12.251,12.7186 6.9833,0.062 z m 380.9959,-6.5442 c 0,-0.6358 -5.85,-6.8824 -13,-13.8815 -7.15,-6.9991 -13.0518,-13.3415 -13.1152,-14.0942 -0.3179,-3.7783 1.0208,-6.4711 9.8503,-19.8145 22.4842,-33.9786 28.7805,-53.8912 26.2301,-82.9545 -1.6651,-18.9751 -1.717,-19.0293 -7.9652,-8.3156 l -4.5,7.7161 -0.6191,16.5 c -1.0633,28.3342 -8.2116,46.2919 -29.9419,75.2183 -5.4877,7.3049 -9.8531,13.9417 -9.701,14.7483 0.6403,3.396 42.762,27.901 42.762,24.8776 z m -567.9318,-25.3231 c 18.9527,-1.4303 33.8834,-3.1394 34.7182,-3.9742 0.2235,-0.2235 -0.9226,-2.3505 -2.5468,-4.7266 -3.9265,-5.7443 -14.1244,-24.6976 -17.6589,-32.8203 -3.8051,-8.7444 -3.9031,-8.803 -8.2794,-4.9541 -17.3,15.2152 -50.9225,31.9741 -81.3013,40.524 -16.9484,4.7699 -17.2715,5.0926 -5.8492,5.8417 5.142,0.3372 11.1492,0.7569 13.3492,0.9327 11.7337,0.9373 50.4984,0.465 67.5682,-0.8232 z m 257.9318,-22.4646 c 19.5638,-1.7733 35.7664,-2.9846 54.5,-4.0744 132.6071,-7.7139 188.1462,-29.8041 228.7476,-90.9821 10.9855,-16.553 25.7524,-49.3522 25.7524,-57.1995 0,-0.214 -5.2875,1.392 -11.75,3.5688 -22.9122,7.7175 -37.8447,5.0986 -64.7198,-11.3508 -17.6958,-10.8311 -25.8878,-13.3888 -43.0302,-13.4351 -16.8867,-0.045 -19.204,0.64 -50.0899,14.8187 -35.8212,16.4442 -80.7612,11.8967 -119.219,-12.0639 -6.4029,-3.9892 -9.5754,-7.1739 -4.5267,-4.5441 9.6935,5.0494 44.9469,10.5505 67.8356,10.5856 25.1831,0.039 34.2349,-2.0335 58.548,-13.4022 38.4055,-17.958 69.6235,-15.9714 103.452,6.5835 13.6111,9.075 23.2804,12.0605 35.9009,11.0845 14.2217,-1.0998 31.9892,-7.021 32.9509,-10.9813 6.6951,-27.569 9.6544,-95.58631 6.1417,-141.16421 -0.8054,-10.45 -1.4709,-19.55339 -1.4789,-20.22979 -0.01,-0.6764 -3.3192,0.9275 -7.3582,3.5641 -45.0071,29.38099 -106.7884,25.21819 -190.1564,-12.8124 -44.7965,-20.4352 -64.0564,-22.3617 -92.75,-9.2775 -9.5778,4.3674 -9.5786,4.3568 0.5,7.2546 45.4395,13.0644 69.2107,34.68489 79.208,72.04139 l 2.4496,9.1532 -2.2038,-0.5256 c -11.4592,-2.7329 -46.833,-3.3364 -51.3521,-0.8761 l -2.1483,1.1696 3.9506,10.0638 c 6.9857,17.7955 11.1126,43.2778 8.1987,50.6245 -0.9085,2.29051 -8.1095,-0.1539 -40.6169,-13.7875 l -9.7641,-4.0952 -6.7359,3.5333 c -20.8799,10.9523 -46.7865,18.24961 -68.8896,19.40451 l -11.1538,0.5828 -0.5962,2.9812 c -0.3279,1.6396 -0.5865,10.2374 -0.5746,19.1061 l 0.022,16.125 5.6308,4 c 46.2498,32.8548 70.8361,104.5259 51.3993,149.8329 -2.6163,6.0987 -2.596,6.8143 0.1767,6.2356 1.2375,-0.2583 7.425,-0.9387 13.75,-1.512 z m -211.5608,-3.8065 c -16.8711,-39.85 -12.2987,-106.0006 9.6425,-139.5 5.1162,-7.8113 3.4437,-7.2242 -4.7492,1.6671 -29.6468,32.1745 -36.3209,76.4566 -17.7038,117.4635 6.5438,14.4137 18.0033,32.635 12.8105,20.3694 z M 471.6674,1172.039 c 34.6331,-18.2592 74.5261,-58.7056 93.8034,-95.1047 5.8741,-11.0913 6.4617,-13.0706 9.2046,-31 1.1359,-7.425 2.3212,-14.85 2.634,-16.5 0.9186,-4.846 -1.0369,-2.0288 -6.9415,10 -23.8172,48.5201 -73.5122,112.405 -103.1293,132.577 -6.767,4.609 -4.2901,4.6244 4.4288,0.028 z m -11.0754,-24.5283 5.3563,-5.4237 -4.3905,-1.1257 c -2.4147,-0.6192 -4.9157,-1.3001 -5.5576,-1.5132 -1.6505,-0.5479 -2.3328,1.8118 -2.3328,8.068 0,6.6998 0.3029,6.6995 6.9246,-0.01 z m 41.6106,-44.1582 c 3.6856,-4.72 6.3105,-8.933 5.833,-9.3623 -0.7657,-0.6883 -13.1875,-4.0559 -14.9607,-4.0559 -0.7406,0 0.3848,18.2951 1.2667,20.5933 0.7682,2.002 0.5131,2.2349 7.861,-7.1751 z M 798.6674,982.56299 c 15.5858,-3.6362 41,-13.4518 41,-15.8352 0,-0.5106 -0.7875,-0.7039 -1.75,-0.4298 -17.9691,5.1189 -60.0611,8.0447 -75.8857,5.2749 -26.0729,-4.5635 -48.4134,-16.5542 -61.8069,-33.1731 -2.2316,-2.769 -5.3116,-6.594 -6.8445,-8.5 -4.0292,-5.0101 -2.9003,-1.2489 3.7694,12.5589 17.0947,35.3894 55.944,50.7368 101.5177,40.1043 z m 417.3844,-11.5748 c 12.398,-3.2091 38.221,-15.7819 36.3195,-17.6834 -0.2541,-0.254 -5.5789,0.8988 -11.8329,2.5618 -17.9645,4.777 -40.8123,6.264 -52.5355,3.4191 -2.7907,-0.6773 -4.107,13.1995 -1.3355,14.079 3.3103,1.0505 21.9773,-0.4593 29.3844,-2.3765 z M 615.365,951.68429 c 24.9592,-32.1129 42.4908,-61.7754 63.0929,-106.74999 9.8958,-21.6024 9.8757,-21.5554 38.2647,-89.91203 42.2507,-101.73384 58.796,-135.61552 94.2896,-193.08797 12.8379,-20.78751 1.4244,-50.7265 -33.8484,-88.78792 -8.6408,-9.32405 -8.951,-8.73464 -1.5771,2.99756 29.2084,46.47228 30.1526,58.48531 7.2762,92.57269 -51.3944,76.58107 -101.0646,184.45991 -155.724,338.21766 -5.876,16.5293 -16.0325,43.6108 -19.9705,53.25 -1.3932,3.4102 0.3223,1.6311 8.1966,-8.5 z m -26.5441,-17.0013 c 12.6082,-35.3679 15.5761,-43.6223 20.0449,-55.7487 35.8576,-97.30356 56.0287,-145.98411 88.0508,-212.49999 12.9758,-26.95319 22.9547,-45.79364 34.1624,-64.5 4.4486,-7.425 8.2002,-13.725 8.3368,-14 0.1366,-0.275 -3.2384,-0.586 -7.5,-0.6911 -5.2616,-0.12977 -13.8463,-1.6734 -26.7484,-4.80971 -86.5815,-21.0466 -91.6062,-17.43861 -62.0117,44.52801 27.1792,56.90917 18.7566,70.44602 -43.4553,69.84211 -44.8754,-0.43562 -45.4633,2.69947 -10.7055,57.09083 27.7026,43.35076 25.766,55.22126 -12.021,73.68186 -27.0403,13.2105 -27.1684,13.9709 -6.3756,37.858 15.7292,18.06989 16.1927,28.34569 1.9463,43.14339 -8.3534,8.6768 -8.336,8.1437 -0.606,18.5119 3.4491,4.6264 7.6116,10.5333 9.25,13.1264 3.8267,6.0567 3.3872,6.3754 7.6323,-5.533 z m 323.6055,-28.9987 c -19.8202,-24.0678 -66.8349,-38.82189 -128.8636,-40.43989 -16.4055,-0.428 -22.7978,-0.2771 -23.309,0.5501 -0.4586,0.742 0.2074,1.1398 1.9081,1.1398 7.3616,0 51.8657,8.1268 71.8744,13.12479 21.4204,5.3507 32.5958,9.5636 48.6311,18.333 1.375,0.7519 5.4755,1.8056 9.1122,2.3414 4.2339,0.6238 9.4494,2.411 14.5,4.9687 10.0584,5.0937 10.3556,5.0929 6.1468,-0.018 z m 347.3364,-32.66659 c 3.647,-0.4707 10.5761,-2.529 15.5,-4.6044 14.1974,-5.9842 29.9153,-5.9812 47.9046,0.01 3.2585,1.0851 -4.8165,-5.7984 -10.3086,-8.7876 -12.547,-6.829 -22.1612,-6.9803 -38.917,-0.6125 -21.4519,8.1524 -51.4532,7.8917 -79.4302,-0.6904 -10.1393,-3.1103 -9.3762,-3.3215 -10.1794,2.817 l -0.6169,4.7148 7.2261,2.1724 c 17.6561,5.308 48.815,7.5633 68.8214,4.9814 z M 812.8573,841.4343 c -0.7392,-14.3016 -3.8489,-25.8976 -10.8197,-40.3471 -5.1476,-10.6702 -6.0613,-11.1514 -3.8878,-2.0475 2.4883,10.4227 2.9577,25.9752 1.1208,37.1338 -0.8818,5.3566 -1.6032,10.213 -1.6032,10.7921 0,0.6717 2.8058,0.9471 7.75,0.7608 l 7.75,-0.2921 z m 419.8169,-60.00791 c 25.9171,-29.94484 28.2036,-59.9011 5.9193,-77.55058 l -3.98,-3.15228 -11.7231,3.85539 c -8.7539,2.87893 -10.9632,3.92067 -8.723,4.11317 10.5429,0.90594 11.7358,1.35199 17.0457,6.3739 14.9075,14.09885 13.5925,38.35294 -3.6331,67.01378 -2.7019,4.49553 -4.9126,8.36693 -4.9126,8.60303 0,0.8922 6.1345,-4.7823 10.0068,-9.25641 z m -11.7775,-87.49058 c 2.8989,-1.09224 6.7791,-2.91067 8.6226,-4.04096 l 3.3519,-2.05508 -0.4537,-20.20273 c -0.426,-18.96513 -2.2596,-36.08901 -3.7986,-35.47515 -0.3757,0.14983 -3.2197,2.60294 -6.3201,5.45137 l -5.6371,5.17896 3.2115,5.16626 c 8.0491,12.94826 2.4988,31.20224 -10.5858,34.81507 -7.0675,1.95142 -15.6297,-2.6201 -18.6744,-9.97054 -1.4239,-3.43769 -9.9456,1.23223 -9.9456,5.45026 0,11.9324 24.6642,21.54719 40.2293,15.68254 z m -240.0198,-8.99505 c 9.0964,-2.82487 18.161,-8.58419 24.9816,-15.87247 9.2123,-9.84397 9.2289,-9.97724 2.1679,-17.38257 -3.2784,-3.43828 -6.6894,-7.3127 -7.58,-8.60983 -2.0073,-2.92372 -3.3587,-2.19564 -4.1945,2.25989 -3.0769,16.40098 -26.3991,26.30027 -42.6095,18.08587 -21.5664,-10.92854 -19.543,-49.65806 3.1184,-59.68897 3.5962,-1.59185 4.4357,-0.32521 -8.6482,-13.04838 -12.8177,-12.46438 -11.3835,-11.97471 -18.5635,-6.33811 -48.9734,38.44636 -7.8807,118.98161 51.3278,100.59457 z m 140.4586,-72.94285 c 19.1003,-8.67229 28.8108,-46.88717 20.4704,-80.55927 -1.0893,-4.39762 -1.8923,-8.08392 -1.7844,-8.19178 0.1079,-0.10787 5.1348,3.46242 11.171,7.93397 23.1436,17.14457 46.9396,43.82925 65.883,73.88095 6.6874,10.60892 7.855,10.54329 4.0277,-0.22644 -6.0954,-17.15217 -14.9081,-33.41799 -25.9042,-48.47873 -48.2431,-66.07579 -138.5126,-108.95599 -225.72,-101.72558 l -9.6884,0.80327 7.8648,6.25 c 7.7189,6.13401 7.9788,6.25 14.0045,6.25 h 6.1395 l 16.7669,16.75 c 18.8607,18.8417 26.8112,28.99212 42.4925,54.25 26.5734,42.80194 32.3573,50.74335 45.2414,62.11719 12.2339,10.79995 21.5896,14.32706 29.0353,10.94642 z M 1008.0423,535.6843 c -7.6996,-12.9521 -54.8736,-55.00852 -82.3749,-73.43853 -61.1022,-40.94773 -151.4216,-71.86107 -202,-69.13789 -7.7233,0.41583 -6.176,0.9573 9.5,3.3245 41.1572,6.21504 98.8459,27.52448 147.5,54.48455 40.8862,22.65571 113.167,71.40202 124.405,83.89898 2.0585,2.28908 4.1839,2.91055 2.9699,0.86839 z m 187.5838,-30.87366 c -15.9663,-47.76204 -46.8194,-89.67849 -82.4551,-112.02202 -8.7191,-5.46685 -9.0103,-4.51533 -0.735,2.40219 26.3372,22.01605 56.4389,65.83647 66.2393,96.42771 2.8869,9.01116 3.1076,9.34406 11.7164,17.66742 10.6326,10.28 10.2704,10.5897 5.2344,-4.4753 z"
         id="path7"
         sodipodi:nodetypes="ssssscsssscsscsssssssssscsssscssssssscsscsssssssscccsscsscsssscccssssscsssscsssssssssssssssscssssssssssssscssssscsssssssssccsssscsscssscsscsscsssccsssssssssssssccsssccssssssscsssssssssssssssssssssscsssssssssssssssssssssssscsssssscsccsssssscssscsssssssscssscssssssssssssssssssssssscsscsssssssssssssssss"
         inkscape:label="body" />
      <path
         id="path8"
         style="display:inline;fill:#ffffff;fill-opacity:1;stroke:none;stroke-width:0.944882;stroke-linecap:round"
         d="m 929.0637,737.53389 c -1.6237,-0.0846 -3.2589,1.09161 -3.3926,2.77148 -0.1759,2.23278 0.8693,4.31922 1.6017,6.37082 3.4002,8.31012 6.8771,16.57826 10.1344,24.92078 0.5309,1.5043 2.2476,2.42637 3.7826,1.92748 2.1959,-0.69715 3.9683,-2.26651 5.8144,-3.5848 6.5883,-5.04473 12.974,-10.35819 19.7015,-15.21929 1.2759,-0.78006 2.6893,-2.01808 2.4373,-3.67345 -0.2942,-1.84484 -2.2056,-2.69307 -3.7412,-3.34406 -4.6785,-1.81659 -9.5484,-3.07712 -14.3622,-4.47547 -6.2461,-1.73521 -12.4825,-3.51073 -18.7402,-5.20286 -1.0619,-0.24922 -2.1389,-0.49782 -3.2357,-0.49063 z m 72.5312,20.73242 c -1.8746,0.0101 -4.0582,0.67502 -4.8398,2.55274 -0.8873,2.19278 0.1249,4.54751 0.9843,6.58203 2.3961,5.14162 5.3656,9.98761 8.0539,14.97713 1.861,3.29741 3.5628,6.67989 5.3075,10.03849 0.8654,1.62461 2.2106,3.37884 4.2226,3.43164 2.3065,0.0146 4.1463,-1.62927 5.8755,-2.95282 4.6743,-3.90099 9.1873,-7.95943 13.8321,-11.86946 3.7389,-3.2214 7.5287,-6.3862 11.2495,-9.62694 0.9409,-1.10354 0.544,-2.87897 -0.6815,-3.59197 -1.9701,-1.18702 -4.3017,-1.5438 -6.5021,-2.10105 -9.3983,-2.04256 -18.7526,-4.28772 -28.1688,-6.24599 -3.0786,-0.58051 -6.1859,-1.22997 -9.3332,-1.1938 z m 117.5449,11.90039 c 6.2271,8.00928 12.5794,15.92809 18.5149,24.15807 1.1272,1.55359 2.1973,3.62093 4.3054,3.90248 2.0919,0.2395 3.7401,-1.37717 5.1563,-2.6875 3.8129,-3.80479 7.4278,-7.80248 11.1091,-11.73394 2.5708,-2.86234 5.2214,-5.67587 7.4768,-8.79926 0.516,-0.74661 0.9281,-1.73679 0.444,-2.59514 -0.1718,-0.66922 -0.9403,-0.94896 -1.485,-1.28182 -2.853,-1.1094 -5.9201,-1.50978 -8.9206,-2.03061 -7.7432,-1.16963 -15.555,-2.00491 -23.3903,-2.12016 -5.2499,-0.0201 -10.4998,-0.0403 -15.7496,-0.0602 0.8463,1.08268 1.6927,2.16536 2.539,3.24804 z"
         inkscape:label="teeth" />
    </g>
  </g>
</svg>
